<svg xmlns="http://www.w3.org/2000/svg" viewBox="55.273 78.145 425.667 202.032" width="425.667" height="202.032">
  <path d="M 255.8 98.544 L 243.311 93.407 L 243.311 90.774 L 255.8 85.637 L 255.8 88.505 L 246.153 91.973 L 246.153 92.208 L 255.8 95.676 Z M 268.385 101.334 L 268.385 92.338 Q 268.385 91.022 267.733 90.311 Q 267.081 89.601 265.908 89.601 Q 262.649 89.601 262.649 93.564 L 261.84 90.018 L 262.909 90.018 Q 263.027 88.623 263.926 87.938 Q 264.826 87.254 266.56 87.254 Q 268.75 87.254 269.949 88.584 Q 271.149 89.913 271.149 92.338 L 271.149 101.334 Z M 259.885 101.334 L 259.885 81.778 L 262.649 81.778 L 262.649 101.334 Z M 283.666 101.595 Q 280.524 101.595 279.122 100.291 Q 277.721 98.987 277.721 96.119 L 277.721 93.772 L 280.485 93.772 L 280.485 95.989 Q 280.485 97.631 281.286 98.375 Q 282.088 99.118 283.926 99.118 Q 284.578 99.118 285.308 99.046 Q 286.039 98.974 286.977 98.857 L 287.29 101.282 Q 286.377 101.438 285.511 101.517 Q 284.644 101.595 283.666 101.595 Z M 277.721 94.815 L 277.721 83.343 L 280.485 83.343 L 280.485 94.815 Z M 274.253 89.94 L 274.253 87.515 L 286.769 87.515 L 286.769 89.94 Z M 300.396 101.334 L 300.396 90.774 Q 300.396 89.34 299.327 89.34 Q 297.971 89.34 297.971 91.217 L 297.033 89.236 L 298.102 89.236 Q 298.167 88.427 298.747 87.841 Q 299.327 87.254 300.422 87.254 Q 301.856 87.254 302.508 88.023 Q 303.16 88.792 303.16 90.513 L 303.16 101.334 Z M 290.436 101.334 L 290.436 87.515 L 292.887 87.515 L 293.2 90.435 L 293.2 101.334 Z M 295.625 101.334 L 295.625 90.513 Q 295.625 89.34 294.53 89.34 Q 293.2 89.34 293.2 91.217 L 292.392 89.236 L 293.278 89.236 Q 293.435 87.254 295.651 87.254 Q 296.733 87.254 297.352 87.997 Q 297.971 88.74 297.971 90.252 L 297.971 101.334 Z M 314.504 101.595 Q 312.105 101.595 311.036 100.291 Q 309.967 98.987 309.967 96.119 L 309.967 81.778 L 312.731 81.778 L 312.731 95.989 Q 312.731 97.084 312.939 97.775 Q 313.148 98.466 313.754 98.792 Q 314.36 99.118 315.547 99.118 Q 316.629 99.118 318.311 98.622 L 318.624 101.047 Q 317.568 101.334 316.596 101.464 Q 315.625 101.595 314.504 101.595 Z M 305.899 84.203 L 305.899 81.778 L 310.202 81.778 L 310.202 84.203 Z M 322.161 98.544 L 322.161 95.676 L 331.287 92.208 L 331.287 91.973 L 322.161 88.505 L 322.161 85.637 L 334.65 90.774 L 334.65 93.407 Z" style="fill: rgb(51, 51, 51); white-space: pre;"/>
  <path d="M 65.912 137.796 Q 64.504 137.796 63.396 137.216 Q 62.288 136.636 61.74 135.554 Q 61.193 134.471 61.454 132.972 Q 61.584 132.216 61.838 131.506 Q 62.092 130.795 62.308 130.071 Q 62.523 129.348 62.523 128.592 Q 62.523 128.083 62.105 127.738 Q 61.688 127.392 61.043 127.197 Q 60.398 127.001 59.707 126.916 Q 59.016 126.832 58.481 126.832 L 58.481 124.772 Q 59.003 124.772 59.687 124.641 Q 60.372 124.511 61.023 124.257 Q 61.675 124.003 62.099 123.631 Q 62.523 123.26 62.523 122.777 Q 62.523 121.982 62.308 121.265 Q 62.092 120.548 61.838 119.844 Q 61.584 119.14 61.454 118.397 Q 61.193 116.95 61.74 115.926 Q 62.288 114.903 63.396 114.355 Q 64.504 113.808 65.912 113.808 Q 66.681 113.808 67.19 113.879 Q 67.698 113.951 68.129 114.068 L 67.816 116.337 Q 67.359 116.272 66.936 116.239 Q 66.512 116.206 66.147 116.206 Q 65.221 116.206 64.648 116.78 Q 64.074 117.354 64.244 118.397 Q 64.374 119.166 64.641 119.87 Q 64.908 120.574 65.137 121.271 Q 65.365 121.969 65.365 122.725 Q 65.365 124.068 64.328 124.811 Q 63.292 125.554 61.428 125.58 L 61.428 126.023 Q 63.292 126.05 64.328 126.747 Q 65.365 127.444 65.365 128.644 Q 65.365 129.426 65.137 130.137 Q 64.908 130.847 64.641 131.538 Q 64.374 132.229 64.244 132.972 Q 64.035 134.119 64.628 134.758 Q 65.221 135.397 66.147 135.397 Q 66.512 135.397 66.936 135.358 Q 67.359 135.319 67.816 135.267 L 68.129 137.535 Q 67.698 137.653 67.19 137.724 Q 66.681 137.796 65.912 137.796 Z M 97.976 135.006 L 97.976 124.446 Q 97.976 123.012 96.907 123.012 Q 95.551 123.012 95.551 124.889 L 94.612 122.908 L 95.681 122.908 Q 95.747 122.099 96.327 121.513 Q 96.907 120.926 98.002 120.926 Q 99.436 120.926 100.088 121.695 Q 100.74 122.464 100.74 124.185 L 100.74 135.006 Z M 88.016 135.006 L 88.016 121.187 L 90.466 121.187 L 90.779 124.107 L 90.779 135.006 Z M 93.204 135.006 L 93.204 124.185 Q 93.204 123.012 92.109 123.012 Q 90.779 123.012 90.779 124.889 L 89.971 122.908 L 90.858 122.908 Q 91.014 120.926 93.23 120.926 Q 94.312 120.926 94.932 121.669 Q 95.551 122.412 95.551 123.924 L 95.551 135.006 Z M 109.544 135.006 L 109.544 121.969 L 112.308 121.969 L 112.308 135.006 Z M 104.277 135.006 L 104.277 132.581 L 109.805 132.581 L 109.805 135.006 Z M 112.047 135.006 L 112.047 132.581 L 116.558 132.581 L 116.558 135.006 Z M 105.059 123.612 L 105.059 121.187 L 112.308 121.187 L 112.308 123.612 Z M 110.834 118.996 Q 110.039 118.996 109.472 118.429 Q 108.905 117.862 108.905 117.067 Q 108.905 116.259 109.472 115.698 Q 110.039 115.137 110.834 115.137 Q 111.643 115.137 112.203 115.698 Q 112.764 116.259 112.764 117.067 Q 112.764 117.862 112.203 118.429 Q 111.643 118.996 110.834 118.996 Z M 128.527 135.006 L 128.527 126.01 Q 128.527 124.759 127.875 124.081 Q 127.223 123.403 126.05 123.403 Q 122.791 123.403 122.791 127.236 L 121.983 123.69 L 123.052 123.69 Q 123.169 122.295 124.068 121.61 Q 124.968 120.926 126.702 120.926 Q 128.892 120.926 130.092 122.256 Q 131.291 123.585 131.291 126.01 L 131.291 135.006 Z M 120.027 135.006 L 120.027 121.187 L 122.53 121.187 L 122.791 124.107 L 122.791 135.006 Z M 134.776 126.975 L 134.776 124.55 L 147.813 124.55 L 147.813 126.975 Z M 159.809 135.006 L 159.809 126.01 Q 159.809 124.694 159.157 123.983 Q 158.505 123.273 157.331 123.273 Q 154.072 123.273 154.072 127.236 L 153.264 123.69 L 154.333 123.69 Q 154.45 122.295 155.35 121.61 Q 156.249 120.926 157.983 120.926 Q 160.174 120.926 161.373 122.256 Q 162.572 123.585 162.572 126.01 L 162.572 135.006 Z M 151.308 135.006 L 151.308 115.45 L 154.072 115.45 L 154.072 135.006 Z M 173.775 135.267 Q 170.242 135.267 168.319 133.409 Q 166.396 131.551 166.396 128.07 Q 166.396 124.681 168.026 122.803 Q 169.656 120.926 172.628 120.926 Q 175.431 120.926 176.963 122.621 Q 178.495 124.316 178.495 127.549 Q 178.495 128.5 178.416 129.322 L 168.717 129.322 L 168.717 127.21 L 175.992 127.21 Q 175.992 125.345 175.105 124.348 Q 174.219 123.351 172.654 123.351 Q 170.894 123.351 169.923 124.55 Q 168.952 125.75 168.952 127.94 Q 168.952 130.339 170.288 131.59 Q 171.624 132.842 174.088 132.842 Q 174.949 132.842 175.783 132.744 Q 176.617 132.646 177.478 132.477 L 177.817 134.902 Q 176.591 135.136 175.574 135.202 Q 174.557 135.267 173.775 135.267 Z M 187.752 135.006 L 187.752 121.969 L 190.516 121.969 L 190.516 135.006 Z M 182.485 135.006 L 182.485 132.581 L 188.013 132.581 L 188.013 135.006 Z M 190.256 135.006 L 190.256 132.581 L 194.766 132.581 L 194.766 135.006 Z M 183.268 123.612 L 183.268 121.187 L 190.516 121.187 L 190.516 123.612 Z M 189.043 118.996 Q 188.248 118.996 187.681 118.429 Q 187.114 117.862 187.114 117.067 Q 187.114 116.259 187.681 115.698 Q 188.248 115.137 189.043 115.137 Q 189.851 115.137 190.412 115.698 Q 190.973 116.259 190.973 117.067 Q 190.973 117.862 190.412 118.429 Q 189.851 118.996 189.043 118.996 Z M 198.408 141.238 L 198.277 138.709 L 202.71 138.578 Q 204.809 138.513 205.761 137.418 Q 206.712 136.323 206.725 134.198 L 206.725 124.107 L 206.986 121.187 L 209.489 121.187 L 209.489 133.781 Q 209.489 137.47 207.807 139.23 Q 206.126 140.99 202.449 141.107 Z M 202.801 135.267 Q 200.089 135.267 198.688 133.481 Q 197.287 131.695 197.287 128.227 Q 197.287 124.628 198.688 122.777 Q 200.089 120.926 202.801 120.926 Q 204.418 120.926 205.422 121.656 Q 206.426 122.386 206.595 123.69 L 207.664 123.69 L 206.725 127.627 Q 206.725 125.489 205.884 124.381 Q 205.044 123.273 203.414 123.273 Q 201.745 123.273 200.885 124.524 Q 200.024 125.776 200.024 128.227 Q 200.024 130.547 200.885 131.734 Q 201.745 132.92 203.414 132.92 Q 205.044 132.92 205.884 131.812 Q 206.725 130.704 206.725 128.566 L 207.664 132.503 L 206.465 132.503 Q 206.334 133.807 205.363 134.537 Q 204.392 135.267 202.801 135.267 Z M 222.371 135.006 L 222.371 126.01 Q 222.371 124.694 221.719 123.983 Q 221.068 123.273 219.894 123.273 Q 216.635 123.273 216.635 127.236 L 215.827 123.69 L 216.896 123.69 Q 217.013 122.295 217.913 121.61 Q 218.812 120.926 220.546 120.926 Q 222.736 120.926 223.936 122.256 Q 225.135 123.585 225.135 126.01 L 225.135 135.006 Z M 213.871 135.006 L 213.871 115.45 L 216.635 115.45 L 216.635 135.006 Z M 237.642 135.267 Q 234.5 135.267 233.098 133.963 Q 231.697 132.659 231.697 129.791 L 231.697 127.444 L 234.461 127.444 L 234.461 129.661 Q 234.461 131.303 235.262 132.047 Q 236.064 132.79 237.902 132.79 Q 238.554 132.79 239.284 132.718 Q 240.014 132.646 240.953 132.529 L 241.266 134.954 Q 240.353 135.11 239.486 135.189 Q 238.619 135.267 237.642 135.267 Z M 231.697 128.487 L 231.697 117.015 L 234.461 117.015 L 234.461 128.487 Z M 228.229 123.612 L 228.229 121.187 L 240.745 121.187 L 240.745 123.612 Z M 250.784 124.785 Q 249.989 124.785 249.422 124.218 Q 248.855 123.651 248.855 122.855 Q 248.855 122.047 249.422 121.487 Q 249.989 120.926 250.784 120.926 Q 251.593 120.926 252.153 121.487 Q 252.714 122.047 252.714 122.855 Q 252.714 123.651 252.153 124.218 Q 251.593 124.785 250.784 124.785 Z M 250.784 135.267 Q 249.989 135.267 249.422 134.7 Q 248.855 134.133 248.855 133.337 Q 248.855 132.529 249.422 131.968 Q 249.989 131.408 250.784 131.408 Q 251.593 131.408 252.153 131.968 Q 252.714 132.529 252.714 133.337 Q 252.714 134.133 252.153 134.7 Q 251.593 135.267 250.784 135.267 Z M 280.945 135.267 Q 279.511 135.267 278.318 135.097 Q 277.125 134.928 276.199 134.641 L 276.525 132.151 Q 277.32 132.373 278.318 132.62 Q 279.315 132.868 280.84 132.868 Q 282.874 132.868 283.995 132.06 Q 285.117 131.251 285.117 129.791 Q 285.117 128.748 284.471 128.018 Q 283.826 127.288 282.6 126.91 Q 281.375 126.532 279.615 126.532 L 279.198 126.532 L 278.885 124.837 L 282.874 125.15 Q 285.09 125.319 286.472 126.591 Q 287.854 127.862 287.854 130.052 Q 287.854 132.529 286.049 133.898 Q 284.243 135.267 280.945 135.267 Z M 279.198 126.532 L 278.885 124.837 Q 280.945 124.563 282.229 124.029 Q 283.513 123.494 284.119 122.732 Q 284.725 121.969 284.725 121.03 Q 284.725 119.896 283.989 119.264 Q 283.252 118.631 281.883 118.631 Q 280.892 118.631 279.778 119.127 Q 278.663 119.622 277.672 120.613 L 275.873 118.827 Q 277.073 117.471 278.65 116.852 Q 280.228 116.233 282.17 116.233 Q 284.699 116.233 286.081 117.308 Q 287.463 118.384 287.463 120.378 Q 287.463 122.047 286.394 123.279 Q 285.325 124.511 283.604 124.967 L 283.604 126.532 Z M 291.861 135.006 L 291.861 132.034 Q 296.15 129.661 298.268 127.099 Q 300.387 124.537 300.387 121.812 Q 300.387 120.222 299.605 119.427 Q 298.822 118.631 297.232 118.631 Q 296.176 118.631 295.029 119.244 Q 293.881 119.857 293.06 120.874 L 291.261 119.088 Q 292.161 117.797 293.816 117.015 Q 295.472 116.233 297.284 116.233 Q 300.217 116.233 301.671 117.621 Q 303.125 119.009 303.125 121.812 Q 303.125 124.615 301.345 127.19 Q 299.566 129.765 295.928 132.138 L 295.928 135.006 Z M 292.643 135.006 L 292.643 132.529 L 303.907 132.529 L 303.907 135.006 Z M 313.347 135.267 Q 307.037 135.267 307.037 125.88 Q 307.037 116.233 313.347 116.233 Q 319.657 116.233 319.657 125.88 Q 319.657 135.267 313.347 135.267 Z M 313.347 127.836 Q 312.474 127.836 311.933 127.295 Q 311.392 126.754 311.392 125.88 Q 311.392 124.993 311.933 124.459 Q 312.474 123.924 313.347 123.924 Q 314.234 123.924 314.768 124.459 Q 315.303 124.993 315.303 125.88 Q 315.303 126.754 314.768 127.295 Q 314.234 127.836 313.347 127.836 Z M 313.347 132.868 Q 316.867 132.868 316.867 125.88 Q 316.867 118.631 313.347 118.631 Q 309.827 118.631 309.827 125.88 Q 309.827 132.868 313.347 132.868 Z M 323.351 141.003 L 323.351 121.187 L 325.854 121.187 L 326.115 124.107 L 326.115 141.003 Z M 330.039 135.267 Q 328.448 135.267 327.477 134.537 Q 326.506 133.807 326.375 132.503 L 325.176 132.503 L 326.115 128.566 Q 326.115 130.704 326.955 131.812 Q 327.796 132.92 329.426 132.92 Q 331.095 132.92 331.955 131.734 Q 332.816 130.547 332.816 128.227 Q 332.816 125.776 331.955 124.524 Q 331.095 123.273 329.426 123.273 Q 327.796 123.273 326.955 124.381 Q 326.115 125.489 326.115 127.627 L 325.176 123.69 L 326.245 123.69 Q 326.427 122.386 327.425 121.656 Q 328.422 120.926 330.039 120.926 Q 332.763 120.926 334.158 122.777 Q 335.553 124.628 335.553 128.227 Q 335.553 131.695 334.158 133.481 Q 332.763 135.267 330.039 135.267 Z M 338.188 135.006 L 343.69 127.392 L 347.94 121.187 L 351.069 121.187 L 345.359 129.035 L 341.317 135.006 Z M 347.94 135.006 L 343.742 129.035 L 338.188 121.187 L 341.317 121.187 L 345.567 127.392 L 351.069 135.006 Z M 360.264 124.785 Q 359.469 124.785 358.902 124.218 Q 358.335 123.651 358.335 122.855 Q 358.335 122.047 358.902 121.487 Q 359.469 120.926 360.264 120.926 Q 361.072 120.926 361.633 121.487 Q 362.194 122.047 362.194 122.855 Q 362.194 123.651 361.633 124.218 Q 361.072 124.785 360.264 124.785 Z M 357.813 140.69 L 358.856 131.695 L 361.881 131.695 L 360.316 140.69 Z M 388.729 137.796 Q 387.973 137.796 387.458 137.724 Q 386.943 137.653 386.513 137.535 L 386.826 135.267 Q 387.282 135.319 387.706 135.358 Q 388.13 135.397 388.495 135.397 Q 389.42 135.397 390.014 134.758 Q 390.607 134.119 390.398 132.972 Q 390.268 132.229 390.001 131.538 Q 389.733 130.847 389.505 130.137 Q 389.277 129.426 389.277 128.644 Q 389.277 127.444 390.32 126.747 Q 391.363 126.05 393.214 126.023 L 393.214 125.58 Q 391.363 125.554 390.32 124.811 Q 389.277 124.068 389.277 122.725 Q 389.277 121.969 389.505 121.271 Q 389.733 120.574 390.001 119.87 Q 390.268 119.166 390.398 118.397 Q 390.581 117.354 390.001 116.78 Q 389.42 116.206 388.495 116.206 Q 388.13 116.206 387.706 116.239 Q 387.282 116.272 386.826 116.337 L 386.513 114.068 Q 386.943 113.951 387.458 113.879 Q 387.973 113.808 388.729 113.808 Q 390.15 113.808 391.252 114.355 Q 392.354 114.903 392.901 115.926 Q 393.449 116.95 393.188 118.397 Q 393.058 119.14 392.803 119.844 Q 392.549 120.548 392.334 121.265 Q 392.119 121.982 392.119 122.777 Q 392.119 123.26 392.543 123.631 Q 392.966 124.003 393.618 124.257 Q 394.27 124.511 394.955 124.641 Q 395.639 124.772 396.161 124.772 L 396.161 126.832 Q 395.626 126.832 394.935 126.916 Q 394.244 127.001 393.599 127.197 Q 392.953 127.392 392.536 127.738 Q 392.119 128.083 392.119 128.592 Q 392.119 129.348 392.334 130.071 Q 392.549 130.795 392.803 131.506 Q 393.058 132.216 393.188 132.972 Q 393.462 134.471 392.908 135.554 Q 392.354 136.636 391.252 137.216 Q 390.15 137.796 388.729 137.796 Z" style="fill: rgb(51, 51, 51); white-space: pre;"/>
  <path d="M 89.981 162.712 L 77.492 157.575 L 77.492 154.942 L 89.981 149.805 L 89.981 152.673 L 80.334 156.141 L 80.334 156.376 L 89.981 159.844 Z M 98.642 165.763 Q 95.93 165.763 94.529 163.977 Q 93.127 162.191 93.127 158.723 Q 93.127 155.124 94.529 153.273 Q 95.93 151.422 98.642 151.422 Q 100.193 151.422 101.164 152.152 Q 102.136 152.882 102.305 154.186 L 103.374 154.186 L 102.566 158.123 Q 102.566 155.985 101.725 154.877 Q 100.884 153.769 99.254 153.769 Q 97.586 153.769 96.725 155.02 Q 95.865 156.272 95.865 158.723 Q 95.865 161.043 96.725 162.23 Q 97.586 163.416 99.254 163.416 Q 100.884 163.416 101.725 162.308 Q 102.566 161.2 102.566 159.062 L 103.505 162.999 L 102.305 162.999 Q 102.175 164.303 101.204 165.033 Q 100.232 165.763 98.642 165.763 Z M 102.853 165.632 L 102.566 162.921 L 102.566 145.946 L 105.33 145.946 L 105.33 165.502 Z M 114.874 165.502 L 114.874 152.465 L 117.638 152.465 L 117.638 165.502 Z M 109.607 165.502 L 109.607 163.077 L 115.135 163.077 L 115.135 165.502 Z M 117.377 165.502 L 117.377 163.077 L 121.888 163.077 L 121.888 165.502 Z M 110.39 154.108 L 110.39 151.683 L 117.638 151.683 L 117.638 154.108 Z M 116.165 149.492 Q 115.37 149.492 114.803 148.925 Q 114.235 148.358 114.235 147.563 Q 114.235 146.755 114.803 146.194 Q 115.37 145.633 116.165 145.633 Q 116.973 145.633 117.534 146.194 Q 118.094 146.755 118.094 147.563 Q 118.094 148.358 117.534 148.925 Q 116.973 149.492 116.165 149.492 Z M 129.141 165.502 L 124.2 151.683 L 127.146 151.683 L 130.862 163.155 L 131.096 163.155 L 134.812 151.683 L 137.758 151.683 L 132.817 165.502 Z M 163.59 165.763 Q 160.057 165.763 158.134 163.905 Q 156.211 162.047 156.211 158.566 Q 156.211 155.177 158.03 153.299 Q 159.849 151.422 163.225 151.422 Q 165.246 151.422 166.687 152.172 Q 168.127 152.921 168.74 154.29 L 166.615 155.894 Q 166.028 154.942 165.116 154.42 Q 164.203 153.899 163.121 153.899 Q 161.165 153.899 160.083 155.079 Q 159.001 156.259 159.001 158.436 Q 159.001 160.796 160.272 162.041 Q 161.543 163.286 163.903 163.286 Q 164.868 163.286 165.833 163.194 Q 166.797 163.103 167.71 162.947 L 168.023 165.372 Q 166.954 165.606 165.813 165.685 Q 164.672 165.763 163.59 165.763 Z M 179.966 165.763 Q 177.567 165.763 176.498 164.459 Q 175.429 163.155 175.429 160.287 L 175.429 145.946 L 178.193 145.946 L 178.193 160.157 Q 178.193 161.252 178.402 161.943 Q 178.61 162.634 179.217 162.96 Q 179.823 163.286 181.009 163.286 Q 182.091 163.286 183.773 162.79 L 184.086 165.215 Q 183.03 165.502 182.059 165.632 Q 181.087 165.763 179.966 165.763 Z M 171.362 148.371 L 171.362 145.946 L 175.664 145.946 L 175.664 148.371 Z M 196.384 165.632 L 196.201 161.539 L 195.836 160.391 L 195.836 156.819 Q 195.836 155.437 194.865 154.792 Q 193.894 154.147 191.977 154.095 L 188.666 154.003 L 188.927 151.552 L 191.717 151.591 Q 195.145 151.644 196.808 153.071 Q 198.47 154.499 198.47 157.236 L 198.47 162.999 L 200.817 163.286 L 200.817 165.502 Z M 191.508 165.763 Q 189.344 165.763 188.157 164.72 Q 186.971 163.677 186.971 161.773 Q 186.971 159.583 188.607 158.41 Q 190.243 157.236 193.229 157.236 Q 194.467 157.236 195.439 157.386 Q 196.41 157.536 197.166 157.836 L 196.593 159.714 Q 195.719 159.518 194.885 159.485 Q 194.05 159.453 193.177 159.453 Q 189.579 159.453 189.579 161.643 Q 189.579 162.556 190.198 163.051 Q 190.817 163.546 191.951 163.546 Q 193.242 163.546 194.109 163.103 Q 194.976 162.66 195.406 161.969 Q 195.836 161.278 195.836 160.548 L 195.836 159.036 L 196.645 162.582 L 195.55 162.582 L 195.993 162.164 Q 195.993 163.364 195.439 164.166 Q 194.885 164.967 193.881 165.365 Q 192.877 165.763 191.508 165.763 Z M 208.119 165.763 Q 206.554 165.763 205.44 165.671 Q 204.325 165.58 203.399 165.372 L 203.712 162.869 Q 205.081 163.077 206.131 163.181 Q 207.18 163.286 208.119 163.286 Q 210.218 163.286 211.163 162.875 Q 212.108 162.464 212.108 161.565 Q 212.108 160.939 211.776 160.633 Q 211.443 160.326 210.752 160.157 L 207.571 159.348 Q 205.524 158.827 204.566 158.058 Q 203.608 157.289 203.608 155.724 Q 203.608 153.456 205.348 152.439 Q 207.089 151.422 210.961 151.422 Q 211.965 151.422 212.832 151.481 Q 213.699 151.539 214.611 151.683 L 214.324 154.081 Q 213.268 153.977 212.46 153.938 Q 211.652 153.899 210.883 153.899 Q 208.562 153.899 207.519 154.297 Q 206.476 154.694 206.476 155.594 Q 206.476 156.194 206.906 156.461 Q 207.336 156.728 208.223 156.95 L 210.778 157.575 Q 212.955 158.097 213.966 158.97 Q 214.976 159.844 214.976 161.513 Q 214.976 163.742 213.347 164.752 Q 211.717 165.763 208.119 165.763 Z M 223.754 165.763 Q 222.19 165.763 221.075 165.671 Q 219.96 165.58 219.035 165.372 L 219.348 162.869 Q 220.717 163.077 221.766 163.181 Q 222.815 163.286 223.754 163.286 Q 225.853 163.286 226.798 162.875 Q 227.744 162.464 227.744 161.565 Q 227.744 160.939 227.411 160.633 Q 227.079 160.326 226.388 160.157 L 223.207 159.348 Q 221.16 158.827 220.202 158.058 Q 219.243 157.289 219.243 155.724 Q 219.243 153.456 220.984 152.439 Q 222.724 151.422 226.596 151.422 Q 227.6 151.422 228.467 151.481 Q 229.334 151.539 230.247 151.683 L 229.96 154.081 Q 228.904 153.977 228.096 153.938 Q 227.287 153.899 226.518 153.899 Q 224.197 153.899 223.154 154.297 Q 222.111 154.694 222.111 155.594 Q 222.111 156.194 222.542 156.461 Q 222.972 156.728 223.858 156.95 L 226.414 157.575 Q 228.591 158.097 229.601 158.97 Q 230.612 159.844 230.612 161.513 Q 230.612 163.742 228.982 164.752 Q 227.352 165.763 223.754 165.763 Z M 233.951 154.212 L 233.951 151.787 L 246.988 151.787 L 246.988 154.212 Z M 233.951 160.73 L 233.951 158.306 L 246.988 158.306 L 246.988 160.73 Z M 252.246 155.333 L 251.985 146.989 L 255.009 146.989 L 254.749 155.333 Z M 257.513 155.333 L 257.252 146.989 L 260.276 146.989 L 260.016 155.333 Z M 273.08 165.763 Q 269.547 165.763 267.624 163.905 Q 265.701 162.047 265.701 158.566 Q 265.701 155.177 267.52 153.299 Q 269.339 151.422 272.715 151.422 Q 274.736 151.422 276.177 152.172 Q 277.617 152.921 278.23 154.29 L 276.105 155.894 Q 275.518 154.942 274.606 154.42 Q 273.693 153.899 272.611 153.899 Q 270.655 153.899 269.573 155.079 Q 268.491 156.259 268.491 158.436 Q 268.491 160.796 269.762 162.041 Q 271.033 163.286 273.393 163.286 Q 274.358 163.286 275.323 163.194 Q 276.287 163.103 277.2 162.947 L 277.513 165.372 Q 276.444 165.606 275.303 165.685 Q 274.162 165.763 273.08 165.763 Z M 287.386 165.763 Q 284.518 165.763 282.927 163.885 Q 281.337 162.008 281.337 158.592 Q 281.337 155.164 282.927 153.293 Q 284.518 151.422 287.386 151.422 Q 290.267 151.422 291.851 153.293 Q 293.435 155.164 293.435 158.592 Q 293.435 162.008 291.851 163.885 Q 290.267 165.763 287.386 165.763 Z M 287.386 163.286 Q 288.911 163.286 289.739 162.06 Q 290.567 160.835 290.567 158.592 Q 290.567 156.337 289.739 155.118 Q 288.911 153.899 287.386 153.899 Q 285.861 153.899 285.033 155.118 Q 284.205 156.337 284.205 158.592 Q 284.205 160.835 285.033 162.06 Q 285.861 163.286 287.386 163.286 Z M 301.976 165.763 Q 299.264 165.763 297.863 163.977 Q 296.461 162.191 296.461 158.723 Q 296.461 155.124 297.863 153.273 Q 299.264 151.422 301.976 151.422 Q 303.527 151.422 304.498 152.152 Q 305.47 152.882 305.639 154.186 L 306.708 154.186 L 305.9 158.123 Q 305.9 155.985 305.059 154.877 Q 304.218 153.769 302.589 153.769 Q 300.92 153.769 300.059 155.02 Q 299.199 156.272 299.199 158.723 Q 299.199 161.043 300.059 162.23 Q 300.92 163.416 302.589 163.416 Q 304.218 163.416 305.059 162.308 Q 305.9 161.2 305.9 159.062 L 306.839 162.999 L 305.639 162.999 Q 305.509 164.303 304.538 165.033 Q 303.566 165.763 301.976 165.763 Z M 306.187 165.632 L 305.9 162.921 L 305.9 145.946 L 308.664 145.946 L 308.664 165.502 Z M 319.867 165.763 Q 316.334 165.763 314.411 163.905 Q 312.488 162.047 312.488 158.566 Q 312.488 155.177 314.117 153.299 Q 315.747 151.422 318.719 151.422 Q 321.522 151.422 323.054 153.117 Q 324.586 154.812 324.586 158.045 Q 324.586 158.996 324.508 159.818 L 314.808 159.818 L 314.808 157.706 L 322.083 157.706 Q 322.083 155.842 321.196 154.844 Q 320.31 153.847 318.746 153.847 Q 316.986 153.847 316.014 155.046 Q 315.043 156.246 315.043 158.436 Q 315.043 160.835 316.379 162.086 Q 317.716 163.338 320.18 163.338 Q 321.04 163.338 321.874 163.24 Q 322.709 163.142 323.569 162.973 L 323.908 165.398 Q 322.683 165.632 321.666 165.698 Q 320.649 165.763 319.867 165.763 Z M 337.181 165.502 L 337.181 156.506 Q 337.181 155.255 336.529 154.577 Q 335.878 153.899 334.704 153.899 Q 331.445 153.899 331.445 157.732 L 330.637 154.186 L 331.706 154.186 Q 331.823 152.791 332.723 152.106 Q 333.622 151.422 335.356 151.422 Q 337.546 151.422 338.746 152.752 Q 339.945 154.081 339.945 156.506 L 339.945 165.502 Z M 328.681 165.502 L 328.681 151.683 L 331.184 151.683 L 331.445 154.603 L 331.445 165.502 Z M 349.479 165.502 L 349.479 152.465 L 352.243 152.465 L 352.243 165.502 Z M 344.212 165.502 L 344.212 163.077 L 349.74 163.077 L 349.74 165.502 Z M 351.982 165.502 L 351.982 163.077 L 356.493 163.077 L 356.493 165.502 Z M 344.995 154.108 L 344.995 151.683 L 352.243 151.683 L 352.243 154.108 Z M 350.77 149.492 Q 349.975 149.492 349.408 148.925 Q 348.84 148.358 348.84 147.563 Q 348.84 146.755 349.408 146.194 Q 349.975 145.633 350.77 145.633 Q 351.578 145.633 352.139 146.194 Q 352.699 146.755 352.699 147.563 Q 352.699 148.358 352.139 148.925 Q 351.578 149.492 350.77 149.492 Z M 368.463 165.502 L 368.463 156.506 Q 368.463 155.255 367.811 154.577 Q 367.159 153.899 365.986 153.899 Q 362.726 153.899 362.726 157.732 L 361.918 154.186 L 362.987 154.186 Q 363.104 152.791 364.004 152.106 Q 364.904 151.422 366.638 151.422 Q 368.828 151.422 370.027 152.752 Q 371.227 154.081 371.227 156.506 L 371.227 165.502 Z M 359.963 165.502 L 359.963 151.683 L 362.466 151.683 L 362.726 154.603 L 362.726 165.502 Z M 375.754 171.76 L 375.624 169.309 L 378.231 169.074 Q 380.33 168.892 381.276 167.855 Q 382.221 166.819 382.221 164.694 L 382.221 160.496 L 384.985 160.496 L 384.985 164.277 Q 384.985 166.741 384.255 168.292 Q 383.525 169.843 381.973 170.632 Q 380.422 171.421 377.971 171.603 Z M 376.85 154.108 L 376.85 151.683 L 382.429 151.683 L 382.429 154.108 Z M 382.221 160.939 L 382.221 151.683 L 384.985 151.683 L 384.985 160.939 Z M 383.316 149.492 Q 382.521 149.492 381.954 148.925 Q 381.386 148.358 381.386 147.563 Q 381.386 146.755 381.954 146.194 Q 382.521 145.633 383.316 145.633 Q 384.124 145.633 384.685 146.194 Q 385.245 146.755 385.245 147.563 Q 385.245 148.358 384.685 148.925 Q 384.124 149.492 383.316 149.492 Z M 399.718 165.632 L 399.535 161.539 L 399.17 160.391 L 399.17 156.819 Q 399.17 155.437 398.199 154.792 Q 397.228 154.147 395.311 154.095 L 392 154.003 L 392.261 151.552 L 395.051 151.591 Q 398.479 151.644 400.142 153.071 Q 401.804 154.499 401.804 157.236 L 401.804 162.999 L 404.151 163.286 L 404.151 165.502 Z M 394.842 165.763 Q 392.678 165.763 391.492 164.72 Q 390.305 163.677 390.305 161.773 Q 390.305 159.583 391.941 158.41 Q 393.578 157.236 396.563 157.236 Q 397.802 157.236 398.773 157.386 Q 399.744 157.536 400.5 157.836 L 399.927 159.714 Q 399.053 159.518 398.219 159.485 Q 397.384 159.453 396.511 159.453 Q 392.913 159.453 392.913 161.643 Q 392.913 162.556 393.532 163.051 Q 394.151 163.546 395.285 163.546 Q 396.576 163.546 397.443 163.103 Q 398.31 162.66 398.74 161.969 Q 399.17 161.278 399.17 160.548 L 399.17 159.036 L 399.979 162.582 L 398.884 162.582 L 399.327 162.164 Q 399.327 163.364 398.773 164.166 Q 398.219 164.967 397.215 165.365 Q 396.211 165.763 394.842 165.763 Z M 408.652 155.333 L 408.392 146.989 L 411.416 146.989 L 411.156 155.333 Z M 413.919 155.333 L 413.659 146.989 L 416.683 146.989 L 416.423 155.333 Z M 422.238 162.712 L 422.238 159.844 L 431.364 156.376 L 431.364 156.141 L 422.238 152.673 L 422.238 149.805 L 434.728 154.942 L 434.728 157.575 Z" style="fill: rgb(51, 51, 51); white-space: pre;"/>
  <path d="M 238.622 211.789 Q 234.252 213.598 229.465 213.598 Q 221.756 213.598 217.623 208.992 Q 213.49 204.386 213.49 195.368 Q 213.49 190.999 214.631 187.464 Q 215.772 183.929 217.887 181.466 Q 220.002 179.003 223.008 177.667 Q 226.014 176.331 229.743 176.331 Q 232.276 176.331 234.447 176.763 Q 236.618 177.194 238.622 178.085 L 238.622 182.955 Q 236.646 181.87 234.531 181.299 Q 232.415 180.729 229.91 180.729 Q 227.35 180.729 225.276 181.689 Q 223.203 182.649 221.756 184.472 Q 220.308 186.295 219.529 188.925 Q 218.75 191.555 218.75 194.923 Q 218.75 201.992 221.617 205.583 Q 224.483 209.173 230.022 209.173 Q 232.36 209.173 234.503 208.63 Q 236.646 208.088 238.622 207.113 Z M 270.011 203.3 Q 270.011 205.889 268.953 207.837 Q 267.896 209.785 266.003 211.079 Q 264.111 212.374 261.453 213.014 Q 258.795 213.654 255.594 213.654 Q 254.147 213.654 252.713 213.543 Q 251.28 213.431 249.958 213.264 Q 248.636 213.097 247.467 212.875 Q 246.298 212.652 245.352 212.402 L 245.352 207.614 Q 247.439 208.394 250.042 208.839 Q 252.644 209.284 255.956 209.284 Q 258.349 209.284 260.033 208.909 Q 261.717 208.533 262.789 207.795 Q 263.86 207.058 264.347 206 Q 264.834 204.943 264.834 203.579 Q 264.834 202.104 264.013 201.06 Q 263.192 200.016 261.856 199.195 Q 260.52 198.374 258.809 197.692 Q 257.097 197.01 255.316 196.287 Q 253.534 195.563 251.823 194.714 Q 250.111 193.865 248.775 192.71 Q 247.439 191.555 246.618 189.997 Q 245.797 188.438 245.797 186.295 Q 245.797 184.43 246.576 182.621 Q 247.356 180.812 248.998 179.407 Q 250.64 178.001 253.214 177.138 Q 255.789 176.276 259.351 176.276 Q 260.27 176.276 261.341 176.359 Q 262.413 176.443 263.512 176.596 Q 264.612 176.749 265.683 176.944 Q 266.755 177.138 267.673 177.361 L 267.673 181.814 Q 265.53 181.202 263.387 180.882 Q 261.244 180.562 259.24 180.562 Q 254.982 180.562 252.978 181.981 Q 250.974 183.401 250.974 185.794 Q 250.974 187.269 251.795 188.327 Q 252.616 189.384 253.952 190.219 Q 255.288 191.054 257 191.736 Q 258.711 192.418 260.492 193.142 Q 262.274 193.865 263.985 194.728 Q 265.697 195.591 267.033 196.774 Q 268.369 197.957 269.19 199.543 Q 270.011 201.13 270.011 203.3 Z M 301.344 203.3 Q 301.344 205.889 300.287 207.837 Q 299.229 209.785 297.337 211.079 Q 295.444 212.374 292.786 213.014 Q 290.128 213.654 286.927 213.654 Q 285.48 213.654 284.047 213.543 Q 282.613 213.431 281.291 213.264 Q 279.969 213.097 278.8 212.875 Q 277.632 212.652 276.685 212.402 L 276.685 207.614 Q 278.773 208.394 281.375 208.839 Q 283.977 209.284 287.289 209.284 Q 289.683 209.284 291.367 208.909 Q 293.05 208.533 294.122 207.795 Q 295.194 207.058 295.681 206 Q 296.168 204.943 296.168 203.579 Q 296.168 202.104 295.347 201.06 Q 294.526 200.016 293.19 199.195 Q 291.854 198.374 290.142 197.692 Q 288.43 197.01 286.649 196.287 Q 284.868 195.563 283.156 194.714 Q 281.445 193.865 280.109 192.71 Q 278.773 191.555 277.952 189.997 Q 277.131 188.438 277.131 186.295 Q 277.131 184.43 277.91 182.621 Q 278.689 180.812 280.331 179.407 Q 281.973 178.001 284.548 177.138 Q 287.122 176.276 290.685 176.276 Q 291.603 176.276 292.675 176.359 Q 293.746 176.443 294.846 176.596 Q 295.945 176.749 297.017 176.944 Q 298.088 177.138 299.007 177.361 L 299.007 181.814 Q 296.863 181.202 294.72 180.882 Q 292.577 180.562 290.573 180.562 Q 286.315 180.562 284.311 181.981 Q 282.307 183.401 282.307 185.794 Q 282.307 187.269 283.128 188.327 Q 283.949 189.384 285.285 190.219 Q 286.621 191.054 288.333 191.736 Q 290.045 192.418 291.826 193.142 Q 293.607 193.865 295.319 194.728 Q 297.03 195.591 298.366 196.774 Q 299.702 197.957 300.523 199.543 Q 301.344 201.13 301.344 203.3 Z M 332.288 202.104 Q 332.288 204.497 331.314 206.599 Q 330.34 208.7 328.392 210.272 Q 326.444 211.845 323.493 212.749 Q 320.543 213.654 316.619 213.654 Q 314.448 213.654 312.722 213.515 Q 310.997 213.376 309.494 213.153 L 309.494 208.811 Q 311.219 209.117 313.14 209.284 Q 315.06 209.451 317.064 209.451 Q 319.792 209.451 321.726 208.964 Q 323.66 208.477 324.885 207.559 Q 326.11 206.64 326.666 205.332 Q 327.223 204.024 327.223 202.382 Q 327.223 200.879 326.555 199.766 Q 325.887 198.652 324.676 197.901 Q 323.465 197.15 321.782 196.774 Q 320.098 196.398 318.094 196.398 L 313.947 196.398 L 313.947 192.418 L 318.15 192.418 Q 319.792 192.418 321.142 191.987 Q 322.491 191.555 323.452 190.748 Q 324.412 189.941 324.927 188.758 Q 325.442 187.575 325.442 186.072 Q 325.442 183.15 323.66 181.814 Q 321.879 180.478 318.428 180.478 Q 316.591 180.478 314.643 180.84 Q 312.694 181.202 310.468 181.925 L 310.468 177.695 Q 311.414 177.361 312.486 177.097 Q 313.557 176.832 314.629 176.651 Q 315.7 176.47 316.758 176.373 Q 317.816 176.276 318.79 176.276 Q 321.684 176.276 323.883 176.902 Q 326.082 177.528 327.557 178.697 Q 329.032 179.866 329.783 181.536 Q 330.535 183.206 330.535 185.293 Q 330.535 188.41 328.934 190.526 Q 327.334 192.641 324.551 193.893 Q 325.97 194.116 327.348 194.784 Q 328.726 195.452 329.825 196.496 Q 330.924 197.539 331.606 198.959 Q 332.288 200.378 332.288 202.104 Z" style="fill: rgb(51, 51, 51); white-space: pre;"/>
  <path d="M 348.629 190.916 L 346.543 190.916 L 346.543 183.885 L 340.11 183.885 L 340.11 190.916 L 338.024 190.916 L 338.024 175.6 L 340.11 175.6 L 340.11 182.08 L 346.543 182.08 L 346.543 175.6 L 348.629 175.6 Z M 362.098 177.381 L 357.563 177.381 L 357.563 190.916 L 355.454 190.916 L 355.454 177.381 L 350.918 177.381 L 350.918 175.6 L 362.098 175.6 Z M 375.719 190.916 L 373.68 190.916 L 373.375 181.365 L 373.247 177.697 L 372.532 179.83 L 370.27 185.924 L 368.829 185.924 L 366.672 180.064 L 365.957 177.697 L 365.911 181.529 L 365.641 190.916 L 363.672 190.916 L 364.422 175.6 L 366.895 175.6 L 368.957 181.365 L 369.625 183.311 L 370.27 181.365 L 372.438 175.6 L 374.981 175.6 Z M 387.839 190.916 L 379.027 190.916 L 379.027 175.6 L 381.148 175.6 L 381.148 189.135 L 387.839 189.135 Z M 400.909 186.018 Q 400.909 187.154 400.417 188.092 Q 399.925 189.029 399.064 189.703 Q 398.202 190.377 397.03 190.752 Q 395.859 191.127 394.499 191.127 Q 394.159 191.127 393.767 191.109 Q 393.374 191.092 392.988 191.062 Q 392.601 191.033 392.232 190.998 Q 391.863 190.963 391.57 190.916 L 391.57 189.064 Q 392.202 189.217 393.017 189.287 Q 393.831 189.357 394.663 189.357 Q 395.601 189.357 396.351 189.135 Q 397.101 188.912 397.628 188.496 Q 398.155 188.08 398.437 187.488 Q 398.718 186.896 398.718 186.158 Q 398.718 184.728 397.693 184.078 Q 396.667 183.428 394.745 183.428 L 391.839 183.428 L 391.839 175.6 L 400.089 175.6 L 400.089 177.381 L 393.761 177.381 L 393.761 181.682 L 395.097 181.682 Q 396.198 181.682 397.241 181.881 Q 398.284 182.08 399.099 182.578 Q 399.913 183.076 400.411 183.914 Q 400.909 184.752 400.909 186.018 Z" style="fill: rgb(51, 51, 51); white-space: pre;"/>
  <path d="M 345.198 213.989 Q 344.401 214.294 343.563 214.441 Q 342.725 214.587 341.834 214.587 Q 339.045 214.587 337.539 213.075 Q 336.034 211.564 336.034 208.657 Q 336.034 207.263 336.467 206.126 Q 336.901 204.989 337.686 204.181 Q 338.471 203.372 339.561 202.933 Q 340.651 202.493 341.963 202.493 Q 342.877 202.493 343.674 202.622 Q 344.471 202.751 345.198 203.044 L 345.198 204.989 Q 344.436 204.591 343.645 204.409 Q 342.854 204.228 342.01 204.228 Q 341.225 204.228 340.528 204.527 Q 339.83 204.825 339.303 205.388 Q 338.776 205.95 338.471 206.759 Q 338.166 207.568 338.166 208.587 Q 338.166 210.72 339.203 211.78 Q 340.241 212.841 342.08 212.841 Q 342.912 212.841 343.692 212.653 Q 344.471 212.466 345.198 212.091 Z M 359.487 208.446 Q 359.487 209.818 359.1 210.96 Q 358.713 212.103 357.987 212.917 Q 357.26 213.732 356.217 214.183 Q 355.174 214.634 353.85 214.634 Q 352.584 214.634 351.582 214.241 Q 350.58 213.849 349.883 213.087 Q 349.186 212.325 348.817 211.2 Q 348.448 210.075 348.448 208.61 Q 348.448 207.239 348.834 206.109 Q 349.221 204.978 349.948 204.163 Q 350.674 203.349 351.717 202.898 Q 352.76 202.446 354.084 202.446 Q 355.35 202.446 356.352 202.839 Q 357.354 203.232 358.051 203.987 Q 358.748 204.743 359.118 205.868 Q 359.487 206.993 359.487 208.446 Z M 357.401 208.54 Q 357.401 207.45 357.161 206.636 Q 356.92 205.821 356.475 205.277 Q 356.03 204.732 355.391 204.456 Q 354.752 204.181 353.967 204.181 Q 353.053 204.181 352.403 204.538 Q 351.752 204.896 351.336 205.493 Q 350.92 206.091 350.727 206.882 Q 350.534 207.673 350.534 208.54 Q 350.534 209.63 350.774 210.45 Q 351.014 211.271 351.459 211.816 Q 351.905 212.36 352.538 212.636 Q 353.17 212.911 353.967 212.911 Q 354.881 212.911 355.532 212.554 Q 356.182 212.196 356.598 211.599 Q 357.014 211.001 357.207 210.21 Q 357.401 209.419 357.401 208.54 Z M 366.44 199.54 L 362.959 199.54 L 362.959 197.864 L 368.502 197.864 L 368.502 212.724 L 372.006 212.724 L 372.006 214.423 L 362.573 214.423 L 362.573 212.724 L 366.44 212.724 Z M 385.872 208.446 Q 385.872 209.818 385.486 210.96 Q 385.099 212.103 384.372 212.917 Q 383.646 213.732 382.603 214.183 Q 381.56 214.634 380.236 214.634 Q 378.97 214.634 377.968 214.241 Q 376.966 213.849 376.269 213.087 Q 375.571 212.325 375.202 211.2 Q 374.833 210.075 374.833 208.61 Q 374.833 207.239 375.22 206.109 Q 375.607 204.978 376.333 204.163 Q 377.06 203.349 378.103 202.898 Q 379.146 202.446 380.47 202.446 Q 381.736 202.446 382.737 202.839 Q 383.739 203.232 384.437 203.987 Q 385.134 204.743 385.503 205.868 Q 385.872 206.993 385.872 208.446 Z M 383.786 208.54 Q 383.786 207.45 383.546 206.636 Q 383.306 205.821 382.861 205.277 Q 382.415 204.732 381.777 204.456 Q 381.138 204.181 380.353 204.181 Q 379.439 204.181 378.788 204.538 Q 378.138 204.896 377.722 205.493 Q 377.306 206.091 377.112 206.882 Q 376.919 207.673 376.919 208.54 Q 376.919 209.63 377.159 210.45 Q 377.4 211.271 377.845 211.816 Q 378.29 212.36 378.923 212.636 Q 379.556 212.911 380.353 212.911 Q 381.267 212.911 381.917 212.554 Q 382.568 212.196 382.984 211.599 Q 383.4 211.001 383.593 210.21 Q 383.786 209.419 383.786 208.54 Z M 389.298 202.657 L 391.161 202.657 L 391.22 204.825 Q 392.263 203.571 393.277 203.009 Q 394.29 202.446 395.322 202.446 Q 397.15 202.446 398.093 203.63 Q 399.036 204.814 398.966 207.146 L 396.904 207.146 Q 396.939 205.599 396.452 204.902 Q 395.966 204.204 395.029 204.204 Q 394.618 204.204 394.202 204.351 Q 393.786 204.497 393.347 204.819 Q 392.907 205.142 392.415 205.646 Q 391.923 206.15 391.361 206.864 L 391.361 214.423 L 389.298 214.423 Z M 406.728 202.446 Q 407.091 202.446 407.419 202.593 Q 407.747 202.739 407.993 202.985 Q 408.24 203.232 408.386 203.56 Q 408.532 203.888 408.532 204.251 Q 408.532 204.626 408.386 204.948 Q 408.24 205.271 407.993 205.517 Q 407.747 205.763 407.419 205.903 Q 407.091 206.044 406.728 206.044 Q 406.353 206.044 406.031 205.903 Q 405.708 205.763 405.462 205.517 Q 405.216 205.271 405.075 204.948 Q 404.935 204.626 404.935 204.251 Q 404.935 203.888 405.075 203.56 Q 405.216 203.232 405.462 202.985 Q 405.708 202.739 406.031 202.593 Q 406.353 202.446 406.728 202.446 Z M 406.728 211.036 Q 407.091 211.036 407.419 211.183 Q 407.747 211.329 407.993 211.575 Q 408.24 211.821 408.386 212.15 Q 408.532 212.478 408.532 212.841 Q 408.532 213.216 408.386 213.538 Q 408.24 213.86 407.993 214.107 Q 407.747 214.353 407.419 214.493 Q 407.091 214.634 406.728 214.634 Q 406.353 214.634 406.031 214.493 Q 405.708 214.353 405.462 214.107 Q 405.216 213.86 405.075 213.538 Q 404.935 213.216 404.935 212.841 Q 404.935 212.478 405.075 212.15 Q 405.216 211.821 405.462 211.575 Q 405.708 211.329 406.031 211.183 Q 406.353 211.036 406.728 211.036 Z M 425.398 210.122 L 422.785 210.122 L 422.352 214.423 L 420.617 214.423 L 421.051 210.122 L 418.062 210.122 L 417.629 214.423 L 415.895 214.423 L 416.328 210.122 L 413.832 210.122 L 413.832 208.599 L 416.48 208.599 L 416.902 204.497 L 414.43 204.497 L 414.43 202.974 L 417.055 202.974 L 417.453 199.107 L 419.164 199.107 L 418.777 202.974 L 421.777 202.974 L 422.176 199.107 L 423.91 199.107 L 423.5 202.974 L 426.02 202.974 L 426.02 204.497 L 423.348 204.497 L 422.937 208.599 L 425.398 208.599 Z M 421.215 208.599 L 421.625 204.497 L 418.625 204.497 L 418.215 208.599 Z M 438.68 206.771 Q 438.68 208.528 438.328 209.976 Q 437.977 211.423 437.262 212.46 Q 436.547 213.497 435.486 214.066 Q 434.426 214.634 432.996 214.634 Q 431.766 214.634 430.758 214.171 Q 429.75 213.708 429.035 212.747 Q 428.32 211.786 427.934 210.298 Q 427.547 208.81 427.547 206.771 Q 427.547 205.013 427.904 203.56 Q 428.262 202.107 428.971 201.069 Q 429.68 200.032 430.746 199.464 Q 431.813 198.896 433.23 198.896 Q 434.461 198.896 435.469 199.359 Q 436.477 199.821 437.191 200.788 Q 437.906 201.755 438.293 203.243 Q 438.68 204.732 438.68 206.771 Z M 436.617 206.841 Q 436.617 206.443 436.588 206.05 Q 436.559 205.657 436.523 205.282 L 430.043 210.099 Q 430.219 210.708 430.488 211.224 Q 430.758 211.739 431.139 212.109 Q 431.52 212.478 432.006 212.683 Q 432.492 212.888 433.113 212.888 Q 433.91 212.888 434.561 212.501 Q 435.211 212.114 435.668 211.353 Q 436.125 210.591 436.371 209.46 Q 436.617 208.329 436.617 206.841 Z M 429.609 206.7 Q 429.609 207.064 429.615 207.427 Q 429.621 207.79 429.656 208.13 L 436.137 203.337 Q 435.961 202.739 435.691 202.247 Q 435.422 201.755 435.047 201.398 Q 434.672 201.04 434.191 200.841 Q 433.711 200.642 433.113 200.642 Q 432.316 200.642 431.666 201.028 Q 431.016 201.415 430.559 202.183 Q 430.102 202.95 429.855 204.081 Q 429.609 205.212 429.609 206.7 Z M 451.878 206.771 Q 451.878 208.528 451.526 209.976 Q 451.175 211.423 450.46 212.46 Q 449.745 213.497 448.684 214.066 Q 447.624 214.634 446.194 214.634 Q 444.964 214.634 443.956 214.171 Q 442.948 213.708 442.233 212.747 Q 441.518 211.786 441.132 210.298 Q 440.745 208.81 440.745 206.771 Q 440.745 205.013 441.102 203.56 Q 441.46 202.107 442.169 201.069 Q 442.878 200.032 443.944 199.464 Q 445.01 198.896 446.428 198.896 Q 447.659 198.896 448.667 199.359 Q 449.675 199.821 450.389 200.788 Q 451.104 201.755 451.491 203.243 Q 451.878 204.732 451.878 206.771 Z M 449.815 206.841 Q 449.815 206.443 449.786 206.05 Q 449.757 205.657 449.721 205.282 L 443.241 210.099 Q 443.417 210.708 443.686 211.224 Q 443.956 211.739 444.337 212.109 Q 444.718 212.478 445.204 212.683 Q 445.69 212.888 446.311 212.888 Q 447.108 212.888 447.759 212.501 Q 448.409 212.114 448.866 211.353 Q 449.323 210.591 449.569 209.46 Q 449.815 208.329 449.815 206.841 Z M 442.807 206.7 Q 442.807 207.064 442.813 207.427 Q 442.819 207.79 442.854 208.13 L 449.335 203.337 Q 449.159 202.739 448.889 202.247 Q 448.62 201.755 448.245 201.398 Q 447.87 201.04 447.389 200.841 Q 446.909 200.642 446.311 200.642 Q 445.514 200.642 444.864 201.028 Q 444.214 201.415 443.757 202.183 Q 443.3 202.95 443.053 204.081 Q 442.807 205.212 442.807 206.7 Z M 465.065 206.771 Q 465.065 208.528 464.714 209.976 Q 464.362 211.423 463.647 212.46 Q 462.932 213.497 461.872 214.066 Q 460.811 214.634 459.382 214.634 Q 458.151 214.634 457.143 214.171 Q 456.136 213.708 455.421 212.747 Q 454.706 211.786 454.319 210.298 Q 453.932 208.81 453.932 206.771 Q 453.932 205.013 454.29 203.56 Q 454.647 202.107 455.356 201.069 Q 456.065 200.032 457.132 199.464 Q 458.198 198.896 459.616 198.896 Q 460.846 198.896 461.854 199.359 Q 462.862 199.821 463.577 200.788 Q 464.292 201.755 464.679 203.243 Q 465.065 204.732 465.065 206.771 Z M 463.003 206.841 Q 463.003 206.443 462.973 206.05 Q 462.944 205.657 462.909 205.282 L 456.429 210.099 Q 456.604 210.708 456.874 211.224 Q 457.143 211.739 457.524 212.109 Q 457.905 212.478 458.391 212.683 Q 458.878 212.888 459.499 212.888 Q 460.296 212.888 460.946 212.501 Q 461.596 212.114 462.054 211.353 Q 462.511 210.591 462.757 209.46 Q 463.003 208.329 463.003 206.841 Z M 455.995 206.7 Q 455.995 207.064 456.001 207.427 Q 456.007 207.79 456.042 208.13 L 462.522 203.337 Q 462.346 202.739 462.077 202.247 Q 461.807 201.755 461.432 201.398 Q 461.057 201.04 460.577 200.841 Q 460.096 200.642 459.499 200.642 Q 458.702 200.642 458.052 201.028 Q 457.401 201.415 456.944 202.183 Q 456.487 202.95 456.241 204.081 Q 455.995 205.212 455.995 206.7 Z M 469.018 216.825 Q 469.616 216.849 470.179 216.72 Q 470.741 216.591 471.169 216.339 Q 471.597 216.087 471.854 215.712 Q 472.112 215.337 472.112 214.857 Q 472.112 214.364 471.942 214.06 Q 471.772 213.755 471.561 213.497 Q 471.35 213.239 471.181 212.946 Q 471.011 212.653 471.011 212.161 Q 471.011 211.915 471.104 211.646 Q 471.198 211.376 471.391 211.153 Q 471.585 210.931 471.884 210.79 Q 472.182 210.65 472.593 210.65 Q 473.003 210.65 473.384 210.819 Q 473.764 210.989 474.052 211.341 Q 474.339 211.693 474.509 212.22 Q 474.679 212.747 474.679 213.462 Q 474.679 214.435 474.321 215.331 Q 473.964 216.228 473.255 216.919 Q 472.546 217.61 471.485 218.021 Q 470.425 218.431 469.018 218.431 Z M 472.686 202.446 Q 473.05 202.446 473.378 202.593 Q 473.706 202.739 473.952 202.985 Q 474.198 203.232 474.345 203.56 Q 474.491 203.888 474.491 204.251 Q 474.491 204.626 474.345 204.948 Q 474.198 205.271 473.952 205.517 Q 473.706 205.763 473.378 205.903 Q 473.05 206.044 472.686 206.044 Q 472.311 206.044 471.989 205.903 Q 471.667 205.763 471.421 205.517 Q 471.175 205.271 471.034 204.948 Q 470.893 204.626 470.893 204.251 Q 470.893 203.888 471.034 203.56 Q 471.175 203.232 471.421 202.985 Q 471.667 202.739 471.989 202.593 Q 472.311 202.446 472.686 202.446 Z" style="fill: rgb(51, 51, 51); white-space: pre;"/>
  <path d="M 351.901 231.151 Q 351.901 232.78 351.451 234.065 Q 351.001 235.349 350.173 236.242 Q 349.346 237.135 348.159 237.611 Q 346.973 238.086 345.487 238.086 Q 344.326 238.086 343.114 237.865 Q 341.901 237.643 340.715 237.161 L 340.715 219.509 L 342.983 219.509 L 342.983 224.58 L 342.879 227.005 Q 343.857 225.688 344.972 225.147 Q 346.086 224.606 347.364 224.606 Q 348.485 224.606 349.332 225.075 Q 350.18 225.545 350.754 226.399 Q 351.327 227.253 351.614 228.459 Q 351.901 229.664 351.901 231.151 Z M 349.58 231.255 Q 349.58 230.225 349.43 229.365 Q 349.28 228.504 348.954 227.891 Q 348.628 227.279 348.12 226.933 Q 347.612 226.588 346.908 226.588 Q 346.477 226.588 346.034 226.725 Q 345.591 226.862 345.115 227.181 Q 344.639 227.5 344.111 228.028 Q 343.583 228.556 342.983 229.339 L 342.983 235.688 Q 343.648 235.948 344.339 236.098 Q 345.03 236.248 345.656 236.248 Q 346.438 236.248 347.149 236.001 Q 347.859 235.753 348.4 235.173 Q 348.941 234.593 349.261 233.634 Q 349.58 232.676 349.58 231.255 Z M 355.927 224.841 L 358 224.841 L 358.065 227.253 Q 359.225 225.858 360.353 225.232 Q 361.481 224.606 362.628 224.606 Q 364.662 224.606 365.711 225.923 Q 366.761 227.24 366.682 229.834 L 364.388 229.834 Q 364.427 228.113 363.886 227.337 Q 363.345 226.562 362.302 226.562 Q 361.846 226.562 361.383 226.725 Q 360.92 226.888 360.431 227.246 Q 359.942 227.605 359.395 228.165 Q 358.847 228.726 358.221 229.521 L 358.221 237.93 L 355.927 237.93 Z M 381.125 230.694 Q 381.125 231.177 381.112 231.503 Q 381.099 231.829 381.073 232.115 L 371.882 232.115 Q 371.882 234.123 373.003 235.199 Q 374.124 236.274 376.236 236.274 Q 376.81 236.274 377.383 236.229 Q 377.957 236.183 378.491 236.105 Q 379.026 236.027 379.515 235.929 Q 380.004 235.831 380.421 235.714 L 380.421 237.578 Q 379.495 237.839 378.328 238.002 Q 377.162 238.165 375.91 238.165 Q 374.228 238.165 373.016 237.708 Q 371.803 237.252 371.028 236.385 Q 370.252 235.518 369.88 234.26 Q 369.509 233.002 369.509 231.411 Q 369.509 230.03 369.906 228.798 Q 370.304 227.566 371.067 226.633 Q 371.829 225.701 372.938 225.154 Q 374.046 224.606 375.454 224.606 Q 376.823 224.606 377.879 225.036 Q 378.935 225.467 379.658 226.255 Q 380.382 227.044 380.753 228.172 Q 381.125 229.299 381.125 230.694 Z M 378.765 230.368 Q 378.804 229.495 378.596 228.771 Q 378.387 228.048 377.95 227.526 Q 377.514 227.005 376.862 226.712 Q 376.21 226.418 375.349 226.418 Q 374.606 226.418 373.994 226.705 Q 373.381 226.992 372.938 227.513 Q 372.494 228.035 372.221 228.765 Q 371.947 229.495 371.882 230.368 Z M 393.156 237.93 L 393.103 236.17 Q 392.034 237.226 390.933 237.695 Q 389.831 238.165 388.619 238.165 Q 387.498 238.165 386.702 237.878 Q 385.907 237.591 385.392 237.089 Q 384.877 236.587 384.636 235.909 Q 384.395 235.231 384.395 234.436 Q 384.395 232.467 385.861 231.353 Q 387.328 230.238 390.196 230.238 L 392.908 230.238 L 392.908 229.091 Q 392.908 227.931 392.165 227.233 Q 391.422 226.536 389.896 226.536 Q 388.788 226.536 387.713 226.783 Q 386.637 227.031 385.49 227.487 L 385.49 225.44 Q 385.92 225.284 386.448 225.134 Q 386.976 224.984 387.563 224.867 Q 388.149 224.749 388.788 224.678 Q 389.427 224.606 390.079 224.606 Q 391.265 224.606 392.217 224.867 Q 393.169 225.128 393.827 225.662 Q 394.485 226.197 394.837 227.005 Q 395.189 227.813 395.189 228.908 L 395.189 237.93 Z M 392.908 231.972 L 390.027 231.972 Q 389.179 231.972 388.567 232.142 Q 387.954 232.311 387.563 232.624 Q 387.172 232.937 386.983 233.374 Q 386.793 233.81 386.793 234.358 Q 386.793 234.736 386.911 235.081 Q 387.028 235.427 387.289 235.694 Q 387.55 235.961 387.967 236.118 Q 388.384 236.274 388.984 236.274 Q 389.766 236.274 390.776 235.798 Q 391.787 235.323 392.908 234.293 Z M 411.203 237.93 L 408.087 237.93 L 401.986 230.916 L 401.986 237.93 L 399.717 237.93 L 399.717 219.509 L 401.986 219.509 L 401.986 230.825 L 407.865 224.841 L 410.864 224.841 L 404.723 230.877 Z M 415.281 240.603 Q 415.946 240.629 416.571 240.485 Q 417.197 240.342 417.673 240.062 Q 418.149 239.781 418.436 239.364 Q 418.723 238.947 418.723 238.412 Q 418.723 237.865 418.534 237.526 Q 418.345 237.187 418.11 236.9 Q 417.875 236.613 417.686 236.287 Q 417.497 235.961 417.497 235.414 Q 417.497 235.14 417.601 234.84 Q 417.706 234.54 417.921 234.293 Q 418.136 234.045 418.468 233.889 Q 418.801 233.732 419.257 233.732 Q 419.713 233.732 420.137 233.921 Q 420.561 234.11 420.88 234.501 Q 421.2 234.892 421.389 235.479 Q 421.578 236.066 421.578 236.861 Q 421.578 237.943 421.18 238.94 Q 420.782 239.938 419.994 240.707 Q 419.205 241.476 418.025 241.932 Q 416.845 242.389 415.281 242.389 Z M 419.361 224.606 Q 419.766 224.606 420.131 224.769 Q 420.496 224.932 420.769 225.206 Q 421.043 225.48 421.206 225.845 Q 421.369 226.21 421.369 226.614 Q 421.369 227.031 421.206 227.39 Q 421.043 227.748 420.769 228.022 Q 420.496 228.296 420.131 228.452 Q 419.766 228.608 419.361 228.608 Q 418.944 228.608 418.586 228.452 Q 418.227 228.296 417.953 228.022 Q 417.68 227.748 417.523 227.39 Q 417.367 227.031 417.367 226.614 Q 417.367 226.21 417.523 225.845 Q 417.68 225.48 417.953 225.206 Q 418.227 224.932 418.586 224.769 Q 418.944 224.606 419.361 224.606 Z" transform="matrix(1.627578, 0, 0, 1.665298, -210.609985, -142.50174)" style="fill: rgb(51, 51, 51); white-space: pre;"/>
</svg>