<?xml version="1.0" encoding="utf-8"?>
<svg viewBox="15.639 73.205 320.717 95.911" width="320.717" height="95.911" xmlns="http://www.w3.org/2000/svg">
  <path d="M 43.995 134.088 C 43.995 150.351 38.018 154.799 28.288 154.799 C 24.257 154.799 20.504 153.965 17.724 153.131 L 15.639 166.892 C 19.253 168.282 25.23 169.116 29.956 169.116 C 48.582 169.116 61.091 160.498 61.091 134.644 L 61.091 73.9 L 43.995 73.9 L 43.995 134.088 Z M 63.954 167.587 L 80.912 167.587 L 80.912 129.084 L 89.53 129.084 C 99.26 129.362 103.708 133.254 106.349 145.486 C 108.99 157.162 111.214 164.807 112.604 167.587 L 130.257 167.587 C 128.311 163.973 125.809 153.131 122.89 141.455 C 120.527 132.42 116.496 125.887 109.824 123.385 L 109.824 122.968 C 118.581 119.771 126.782 111.57 126.782 99.477 C 126.782 91.554 123.863 85.021 118.72 80.711 C 112.465 75.429 103.291 73.205 89.808 73.205 C 79.939 73.205 70.348 74.039 63.954 75.151 L 63.954 167.587 Z M 80.912 86.967 C 82.58 86.55 86.055 86.133 91.476 86.133 C 102.596 86.133 109.824 90.859 109.824 101.145 C 109.824 110.458 102.596 116.574 91.059 116.574 L 80.912 116.574 L 80.912 86.967 Z M 127.135 167.309 C 132.695 168.004 140.201 168.56 150.208 168.56 C 168.417 168.56 183.29 164.251 192.603 155.772 C 201.499 147.71 207.198 135.2 207.198 118.52 C 207.198 102.535 201.638 91.415 192.603 84.048 C 183.985 76.819 171.892 73.205 154.378 73.205 C 144.232 73.205 134.641 73.9 127.135 75.151 L 127.135 167.309 Z M 144.232 87.523 C 146.594 86.967 150.486 86.55 155.907 86.55 C 177.313 86.55 189.267 98.365 189.128 119.076 C 189.128 142.845 175.923 155.077 153.683 154.938 C 150.208 154.938 146.594 154.938 144.232 154.521 L 144.232 87.523 Z M 258.572 112.126 L 223.267 112.126 L 223.267 87.94 L 260.657 87.94 L 260.657 73.9 L 206.17 73.9 L 206.17 167.587 L 262.742 167.587 L 262.742 153.548 L 223.267 153.548 L 223.267 126.026 L 258.572 126.026 L 258.572 112.126 Z M 303.969 167.587 L 336.356 73.9 L 318.147 73.9 L 304.525 116.713 C 300.772 128.111 297.436 139.509 294.934 150.629 L 294.656 150.629 C 292.154 139.231 289.096 128.25 285.482 116.435 L 272.694 73.9 L 254.068 73.9 L 284.37 167.587 L 303.969 167.587 Z" style="fill: #fff; white-space: pre;"/>
</svg>