<svg xmlns="http://www.w3.org/2000/svg" viewBox="126.429 -38.755 98.475 320.839" width="98.475" height="320.839">
  <path d="M 55.877 122.37 C 55.877 138.633 49.9 143.081 40.17 143.081 C 36.139 143.081 32.386 142.247 29.606 141.413 L 27.521 155.174 C 31.135 156.564 37.112 157.398 41.838 157.398 C 60.464 157.398 72.974 148.78 72.974 122.926 L 72.974 62.183 L 55.877 62.183 Z M 75.837 155.869 L 92.795 155.869 L 92.795 117.366 L 101.413 117.366 C 111.143 117.644 115.591 121.536 118.232 133.768 C 120.873 145.444 123.097 153.089 124.487 155.869 L 142.14 155.869 C 140.194 152.255 137.692 141.413 134.773 129.737 C 132.41 120.702 128.379 114.169 121.707 111.667 L 121.707 111.25 C 130.464 108.053 138.665 99.852 138.665 87.759 C 138.665 79.836 135.746 73.303 130.603 68.994 C 124.348 63.712 115.174 61.488 101.691 61.488 C 91.822 61.488 82.231 62.322 75.837 63.434 Z M 92.795 75.249 C 94.463 74.832 97.938 74.415 103.359 74.415 C 114.479 74.415 121.707 79.141 121.707 89.427 C 121.707 98.74 114.479 104.856 102.942 104.856 L 92.795 104.856 Z M 139.018 155.591 C 144.578 156.286 152.084 156.842 162.092 156.842 C 180.301 156.842 195.174 152.533 204.487 144.054 C 213.383 135.992 219.082 123.482 219.082 106.802 C 219.082 90.817 213.522 79.697 204.487 72.33 C 195.869 65.102 183.776 61.488 166.262 61.488 C 156.115 61.488 146.524 62.183 139.018 63.434 Z M 156.115 75.805 C 158.478 75.249 162.37 74.832 167.791 74.832 C 189.197 74.832 201.151 86.647 201.012 107.358 C 201.012 131.127 187.807 143.359 165.567 143.22 C 162.092 143.22 158.478 143.22 156.115 142.803 Z M 270.457 100.408 L 235.151 100.408 L 235.151 76.222 L 272.542 76.222 L 272.542 62.183 L 218.054 62.183 L 218.054 155.869 L 274.627 155.869 L 274.627 141.83 L 235.151 141.83 L 235.151 114.308 L 270.457 114.308 Z M 315.854 155.869 L 348.241 62.183 L 330.032 62.183 L 316.41 104.995 C 312.657 116.393 309.321 127.791 306.819 138.911 L 306.541 138.911 C 304.039 127.513 300.981 116.532 297.367 104.717 L 284.579 62.183 L 265.953 62.183 L 296.255 155.869 Z" transform="matrix(0, -1, 1, 0, 66.554214, 309.041901)" style="fill: rgb(51, 51, 51); white-space: pre;"/>
</svg>