<?xml version="1.0" encoding="utf-8"?>
<svg viewBox="0 0 349 148" width="349" height="148" fill="none" xmlns="http://www.w3.org/2000/svg">
  <rect y="0.326172" width="348" height="147" rx="15" fill="#1a8dcb"/>
  <path d="M 91.233 61.694 L 68.849 75.237 L 68.849 61.694 L 91.233 61.694 Z" style="stroke: rgb(255, 255, 255); stroke-width: 2px; fill: rgb(26, 141, 203);"/>
  <path d="M 45.265 52.691 C 46.234 52.691 47.02 51.894 47.02 50.912 C 47.02 49.927 46.234 49.13 45.265 49.13 C 44.295 49.13 43.509 49.927 43.509 50.912 C 43.509 51.894 44.295 52.691 45.265 52.691 Z" fill="#9A9A9A" style="stroke: rgb(255, 255, 255); stroke-width: 2px;"/>
  <path d="M 40.261 52.691 C 41.231 52.691 42.017 51.894 42.017 50.912 C 42.017 49.927 41.231 49.13 40.261 49.13 C 39.292 49.13 38.506 49.927 38.506 50.912 C 38.506 51.894 39.292 52.691 40.261 52.691 Z" fill="#9A9A9A" style="stroke: rgb(255, 255, 255); stroke-width: 2px;"/>
  <path d="M 35.258 52.691 C 36.229 52.691 37.015 51.894 37.015 50.912 C 37.015 49.927 36.229 49.13 35.258 49.13 C 34.287 49.13 33.504 49.927 33.504 50.912 C 33.504 51.894 34.287 52.691 35.258 52.691 Z" fill="#9A9A9A" style="stroke: rgb(255, 255, 255); stroke-width: 2px;"/>
  <path d="M 100 55.808 L 100 96.518 C 100 98.436 98.458 100 96.567 100 L 33.211 100 C 31.318 100 29.776 98.436 29.776 96.518 L 29.776 49.448 C 29.776 47.528 31.318 45.964 33.211 45.964 L 96.567 45.964 C 98.458 45.964 100 47.528 100 49.448 L 100 55.808 Z" stroke-linecap="round" stroke-linejoin="round" style="stroke: rgb(255, 255, 255); stroke-width: 2px;"/>
  <path d="M 29.776 55.808 L 100 55.808" stroke-linecap="round" stroke-linejoin="round" style="stroke: rgb(255, 255, 255); stroke-width: 2px;"/>
  <path d="M 91.231 61.694 L 68.846 61.694 L 68.846 75.237 L 91.231 75.237 L 91.231 61.694 Z" stroke-linecap="round" stroke-linejoin="round" style="stroke: rgb(255, 255, 255); stroke-width: 2px;"/>
  <path d="M 62.79 61.694 L 38.545 61.694 L 38.545 94.014 L 62.79 94.014 L 62.79 61.694 Z" stroke-linecap="round" stroke-linejoin="round" style="stroke: rgb(255, 255, 255); stroke-width: 2px;"/>
  <path d="M 38.545 94.014 L 50.667 77.859 L 62.79 61.694" stroke-linecap="round" stroke-linejoin="round" style="stroke: rgb(255, 255, 255); stroke-width: 2px;"/>
  <path d="M 38.545 61.694 L 50.667 77.859 L 62.79 94.014" stroke-linecap="round" stroke-linejoin="round" style="stroke: rgb(255, 255, 255); stroke-width: 2px;"/>
  <path d="M 71.195 75.237 L 93.58 61.694" stroke-linecap="round" stroke-linejoin="round" style="stroke: rgb(255, 255, 255); stroke-width: 2px;"/>
  <path d="M 68.846 82.718 L 91.231 82.718" stroke-linecap="round" stroke-linejoin="round" style="stroke: rgb(255, 255, 255); stroke-width: 2px;"/>
  <path d="M 68.846 89.424 L 80.034 89.424" stroke-linecap="round" stroke-linejoin="round" style="stroke: rgb(255, 255, 255); stroke-width: 2px;"/>
  <path d="M 360.967 -12.215 L 360.967 96.006 C 360.967 101.105 356.879 105.262 351.865 105.262 L 183.87 105.262 C 178.851 105.262 174.762 101.105 174.762 96.006 L 174.762 -29.122 C 174.762 -34.226 178.851 -38.384 183.87 -38.384 L 351.865 -38.384 C 356.879 -38.384 360.967 -34.226 360.967 -29.122 L 360.967 -12.215 Z" stroke-linecap="round" stroke-linejoin="round" style="stroke: rgb(50, 172, 237); stroke-width: 14px;"/>
  <path d="M 339.935 -7.884 L 285.505 -7.884 L 285.505 25.047 L 339.935 25.047 L 339.935 -7.884 Z" stroke-linecap="round" stroke-linejoin="round" style="stroke: rgb(50, 172, 237); stroke-width: 14px;"/>
  <path d="M 258.953 2.158 L 200 2.158 L 200 80.746 L 258.953 80.746 L 258.953 2.158 Z" stroke-linecap="round" stroke-linejoin="round" style="stroke: rgb(50, 172, 237); stroke-width: 14px;"/>
  <path d="M 200 80.746 L 229.475 41.464 L 258.953 2.158" stroke-linecap="round" stroke-linejoin="round" style="stroke: rgb(50, 172, 237); stroke-width: 14px;"/>
  <path d="M 200 2.158 L 229.475 41.464 L 258.953 80.746" stroke-linecap="round" stroke-linejoin="round" style="stroke: rgb(50, 172, 237); stroke-width: 14px;"/>
  <path d="M 285.936 25.047 L 340.366 -7.884" stroke-linecap="round" stroke-linejoin="round" style="stroke: rgb(50, 172, 237); stroke-width: 13px;"/>
  <path d="M 284.505 46.352 L 339.935 46.352" stroke-linecap="round" stroke-linejoin="round" style="stroke: rgb(50, 172, 237); stroke-width: 14px;"/>
  <path d="M 285.936 69.585 L 313.14 69.585" stroke-linecap="round" stroke-linejoin="round" style="stroke: rgb(50, 172, 237); stroke-width: 14px;"/>
</svg>